<svg width="26" height="26" viewBox="0 0 26 26" fill="none" xmlns="http://www.w3.org/2000/svg">
<rect width="26" height="26" fill="#E7FF2A"/>
<path d="M18.3426 13.3139L14.2572 17.3993C14.1739 17.4826 14.0608 17.5294 13.943 17.5294C13.8251 17.5294 13.712 17.4826 13.6287 17.3993C13.5453 17.3159 13.4985 17.2029 13.4985 17.085C13.4985 16.9671 13.5453 16.8541 13.6287 16.7707L16.9555 13.4439L7.97202 13.4443C7.85408 13.4443 7.74097 13.3975 7.65758 13.3141C7.57419 13.2307 7.52734 13.1176 7.52734 12.9996C7.52734 12.8817 7.57419 12.7686 7.65758 12.6852C7.74097 12.6018 7.85408 12.5549 7.97202 12.5549L16.9555 12.5553L13.6287 9.22851C13.5453 9.14516 13.4985 9.03212 13.4985 8.91425C13.4985 8.79638 13.5453 8.68333 13.6287 8.59999C13.712 8.51664 13.8251 8.46982 13.943 8.46982C14.0608 8.46982 14.1739 8.51664 14.2572 8.59999L18.3426 12.6854C18.4259 12.7687 18.4728 12.8818 18.4728 12.9996C18.4728 13.1175 18.4259 13.2305 18.3426 13.3139Z" fill="#053333"/>
</svg>
