<svg width="23" height="23" viewBox="0 0 23 23" fill="none" xmlns="http://www.w3.org/2000/svg">
<rect y="0.571289" width="22.3194" height="22.3194" rx="11.1597" fill="#053333"/>
<path d="M17.9216 12.1287L12.7509 17.2994C12.6454 17.4049 12.5023 17.4642 12.3531 17.4642C12.2039 17.4642 12.0609 17.4049 11.9554 17.2994C11.8499 17.1939 11.7906 17.0509 11.7906 16.9017C11.7906 16.7525 11.8499 16.6094 11.9554 16.5039L16.166 12.2933L4.79593 12.2938C4.64666 12.2938 4.50351 12.2345 4.39796 12.1289C4.29241 12.0234 4.23312 11.8802 4.23312 11.731C4.23312 11.5817 4.29241 11.4385 4.39796 11.333C4.50351 11.2274 4.64666 11.1682 4.79593 11.1682L16.166 11.1687L11.9554 6.958C11.8499 6.85251 11.7906 6.70943 11.7906 6.56025C11.7906 6.41106 11.8499 6.26799 11.9554 6.1625C12.0609 6.05701 12.2039 5.99775 12.3531 5.99775C12.5023 5.99775 12.6454 6.05701 12.7509 6.1625L17.9216 11.3332C18.0271 11.4387 18.0864 11.5818 18.0864 11.731C18.0864 11.8802 18.0271 12.0232 17.9216 12.1287Z" fill="white"/>
</svg>
