<svg width="23" height="24" viewBox="0 0 23 24" fill="none" xmlns="http://www.w3.org/2000/svg">
<rect y="0.840332" width="22.3194" height="22.3194" rx="11.1597" fill="#E7FF2A"/>
<path d="M17.9216 12.3978L12.7509 17.5685C12.6454 17.674 12.5023 17.7332 12.3531 17.7332C12.2039 17.7332 12.0609 17.674 11.9554 17.5685C11.8499 17.463 11.7906 17.3199 11.7906 17.1707C11.7906 17.0215 11.8499 16.8785 11.9554 16.773L16.166 12.5623L4.79593 12.5628C4.64666 12.5628 4.50351 12.5035 4.39796 12.398C4.29241 12.2924 4.23312 12.1493 4.23312 12C4.23312 11.8507 4.29241 11.7076 4.39796 11.602C4.50351 11.4965 4.64666 11.4372 4.79593 11.4372L16.166 11.4377L11.9554 7.22704C11.8499 7.12155 11.7906 6.97848 11.7906 6.82929C11.7906 6.68011 11.8499 6.53703 11.9554 6.43154C12.0609 6.32605 12.2039 6.26679 12.3531 6.26679C12.5023 6.26679 12.6454 6.32605 12.7509 6.43154L17.9216 11.6023C18.0271 11.7078 18.0864 11.8508 18.0864 12C18.0864 12.1492 18.0271 12.2923 17.9216 12.3978Z" fill="#053333"/>
</svg>
