<svg width="26" height="26" viewBox="0 0 26 26" fill="none" xmlns="http://www.w3.org/2000/svg">
<rect x="-0.5" y="0.5" width="25" height="25" transform="matrix(-1 0 0 1 25 0)" stroke="white"/>
<path d="M7.65741 13.3149L11.7428 17.4002C11.8261 17.4836 11.9392 17.5304 12.057 17.5304C12.1749 17.5304 12.288 17.4836 12.3713 17.4002C12.4547 17.3169 12.5015 17.2039 12.5015 17.086C12.5015 16.9681 12.4547 16.8551 12.3713 16.7717L9.04447 13.4449L18.028 13.4453C18.1459 13.4453 18.259 13.3984 18.3424 13.315C18.4258 13.2316 18.4727 13.1185 18.4727 13.0006C18.4727 12.8827 18.4258 12.7696 18.3424 12.6862C18.259 12.6028 18.1459 12.5559 18.028 12.5559L9.04447 12.5563L12.3713 9.22948C12.4547 9.14614 12.5015 9.03309 12.5015 8.91522C12.5015 8.79735 12.4547 8.68431 12.3713 8.60096C12.288 8.51762 12.1749 8.47079 12.057 8.47079C11.9392 8.47079 11.8261 8.51762 11.7428 8.60096L7.65741 12.6863C7.57406 12.7697 7.52724 12.8827 7.52724 13.0006C7.52724 13.1185 7.57406 13.2315 7.65741 13.3149Z" fill="white"/>
</svg>
