<svg width="26" height="26" viewBox="0 0 26 26" fill="none" xmlns="http://www.w3.org/2000/svg">
<rect x="-0.5" y="0.5" width="25" height="25" transform="matrix(-1 0 0 1 25 0)" stroke="#6E6E6E"/>
<path d="M7.65741 13.3139L11.7428 17.3993C11.8261 17.4826 11.9392 17.5294 12.057 17.5294C12.1749 17.5294 12.288 17.4826 12.3713 17.3993C12.4547 17.3159 12.5015 17.2029 12.5015 17.085C12.5015 16.9671 12.4547 16.8541 12.3713 16.7707L9.04447 13.4439L18.028 13.4443C18.1459 13.4443 18.259 13.3975 18.3424 13.3141C18.4258 13.2307 18.4727 13.1176 18.4727 12.9996C18.4727 12.8817 18.4258 12.7686 18.3424 12.6852C18.259 12.6018 18.1459 12.5549 18.028 12.5549L9.04447 12.5553L12.3713 9.22851C12.4547 9.14516 12.5015 9.03212 12.5015 8.91425C12.5015 8.79638 12.4547 8.68333 12.3713 8.59999C12.288 8.51664 12.1749 8.46982 12.057 8.46982C11.9392 8.46982 11.8261 8.51664 11.7428 8.59999L7.65741 12.6854C7.57406 12.7687 7.52724 12.8818 7.52724 12.9996C7.52723 13.1175 7.57406 13.2305 7.65741 13.3139Z" fill="#6E6E6E"/>
</svg>
