<svg width="26" height="26" viewBox="0 0 26 26" fill="none" xmlns="http://www.w3.org/2000/svg">
<rect x="-0.5" y="0.5" width="25" height="25" transform="matrix(-1 0 0 1 25 0)" stroke="white"/>
<path d="M18.3426 12.6851L14.2572 8.59976C14.1739 8.51641 14.0608 8.46959 13.943 8.46959C13.8251 8.46959 13.712 8.51641 13.6287 8.59976C13.5453 8.6831 13.4985 8.79615 13.4985 8.91402C13.4985 9.03189 13.5453 9.14493 13.6287 9.22828L16.9555 12.5551L7.97202 12.5547C7.85408 12.5547 7.74097 12.6016 7.65758 12.685C7.57419 12.7684 7.52734 12.8815 7.52734 12.9994C7.52734 13.1173 7.57419 13.2304 7.65758 13.3138C7.74097 13.3972 7.85408 13.4441 7.97202 13.4441L16.9555 13.4437L13.6287 16.7705C13.5453 16.8539 13.4985 16.9669 13.4985 17.0848C13.4985 17.2026 13.5453 17.3157 13.6287 17.399C13.712 17.4824 13.8251 17.5292 13.943 17.5292C14.0608 17.5292 14.1739 17.4824 14.2572 17.399L18.3426 13.3137C18.4259 13.2303 18.4728 13.1173 18.4728 12.9994C18.4728 12.8815 18.4259 12.7685 18.3426 12.6851Z" fill="white"/>
</svg>
