<svg width="26" height="26" viewBox="0 0 26 26" fill="none" xmlns="http://www.w3.org/2000/svg">
<rect width="26" height="26" fill="#E7FF2A"/>
<path d="M7.65741 12.6851L11.7428 8.59976C11.8261 8.51641 11.9392 8.46959 12.057 8.46959C12.1749 8.46959 12.288 8.51641 12.3713 8.59976C12.4547 8.6831 12.5015 8.79615 12.5015 8.91402C12.5015 9.03189 12.4547 9.14493 12.3713 9.22828L9.04447 12.5551L18.028 12.5547C18.1459 12.5547 18.259 12.6016 18.3424 12.685C18.4258 12.7684 18.4727 12.8815 18.4727 12.9994C18.4727 13.1173 18.4258 13.2304 18.3424 13.3138C18.259 13.3972 18.1459 13.4441 18.028 13.4441L9.04447 13.4437L12.3713 16.7705C12.4547 16.8539 12.5015 16.9669 12.5015 17.0848C12.5015 17.2026 12.4547 17.3157 12.3713 17.399C12.288 17.4824 12.1749 17.5292 12.057 17.5292C11.9392 17.5292 11.8261 17.4824 11.7428 17.399L7.65741 13.3137C7.57406 13.2303 7.52724 13.1173 7.52724 12.9994C7.52724 12.8815 7.57406 12.7685 7.65741 12.6851Z" fill="#053333"/>
</svg>
