<svg width="26" height="26" viewBox="0 0 26 26" fill="none" xmlns="http://www.w3.org/2000/svg">
<rect width="26" height="26" fill="#E7FF2A"/>
<path d="M18.3426 13.3149L14.2572 17.4002C14.1739 17.4836 14.0608 17.5304 13.943 17.5304C13.8251 17.5304 13.712 17.4836 13.6287 17.4002C13.5453 17.3169 13.4985 17.2039 13.4985 17.086C13.4985 16.9681 13.5453 16.8551 13.6287 16.7717L16.9555 13.4449L7.97202 13.4453C7.85408 13.4453 7.74097 13.3984 7.65758 13.315C7.57419 13.2316 7.52734 13.1185 7.52734 13.0006C7.52734 12.8827 7.57419 12.7696 7.65758 12.6862C7.74097 12.6028 7.85408 12.5559 7.97202 12.5559L16.9555 12.5563L13.6287 9.22948C13.5453 9.14614 13.4985 9.03309 13.4985 8.91522C13.4985 8.79735 13.5453 8.68431 13.6287 8.60096C13.712 8.51762 13.8251 8.47079 13.943 8.47079C14.0608 8.47079 14.1739 8.51762 14.2572 8.60096L18.3426 12.6863C18.4259 12.7697 18.4728 12.8827 18.4728 13.0006C18.4728 13.1185 18.4259 13.2315 18.3426 13.3149Z" fill="#053333"/>
</svg>
