<svg width="52" height="52" viewBox="0 0 52 52" fill="none" xmlns="http://www.w3.org/2000/svg">
<rect width="52" height="52" fill="#E7FF2A"/>
<g clip-path="url(#clip0_719_4487)">
<path d="M34 22C31.79 22 30 20.21 30 18C30 15.79 31.79 14 34 14C36.21 14 38 15.79 38 18C38 20.21 36.21 22 34 22ZM26 29.42C26.77 29.42 27.54 29.13 28.12 28.54L32.79 23.87C30.06 23.31 28 20.89 28 17.99C28 17.65 28.04 17.32 28.09 16.99H19C17.19 16.99 15.62 17.96 14.74 19.4L23.88 28.55C24.46 29.13 25.23 29.43 26 29.43V29.42ZM35.76 23.73L29.53 29.96C28.56 30.93 27.27 31.42 25.99 31.42C24.71 31.42 23.43 30.93 22.45 29.96L14.05 21.54C14.04 21.69 14 21.84 14 22V33C14 35.76 16.24 38 19 38H33C35.76 38 38 35.76 38 33L37.98 22.47C37.34 23.04 36.59 23.47 35.76 23.73Z" fill="#053333"/>
</g>
<defs>
<clipPath id="clip0_719_4487">
<rect width="24" height="24" fill="white" transform="translate(14 14)"/>
</clipPath>
</defs>
</svg>
