<svg width="52" height="52" viewBox="0 0 52 52" fill="none" xmlns="http://www.w3.org/2000/svg">
<rect width="52" height="52" fill="#E7FF2A"/>
<g clip-path="url(#clip0_719_4499)">
<path d="M26 14.042C23.354 14.0449 20.8171 15.0973 18.946 16.9682C17.0748 18.8392 16.0222 21.3759 16.019 24.022C16.019 26.592 18.009 30.614 21.934 35.976C22.4013 36.6161 23.0131 37.1369 23.7196 37.4959C24.4262 37.8549 25.2075 38.042 26 38.042C26.7926 38.042 27.5739 37.8549 28.2804 37.4959C28.987 37.1369 29.5988 36.6161 30.066 35.976C33.991 30.614 35.981 26.592 35.981 24.022C35.9779 21.3759 34.9252 18.8392 33.0541 16.9682C31.183 15.0973 28.6461 14.0449 26 14.042ZM26 28C25.2089 28 24.4356 27.7654 23.7778 27.3259C23.12 26.8863 22.6073 26.2616 22.3045 25.5307C22.0018 24.7998 21.9226 23.9956 22.0769 23.2196C22.2312 22.4437 22.6122 21.731 23.1716 21.1716C23.731 20.6122 24.4438 20.2312 25.2197 20.0769C25.9956 19.9225 26.7999 20.0017 27.5308 20.3045C28.2617 20.6072 28.8864 21.1199 29.3259 21.7777C29.7654 22.4355 30 23.2089 30 24C30 25.0609 29.5786 26.0783 28.8285 26.8284C28.0783 27.5786 27.0609 28 26 28Z" fill="#053333"/>
</g>
<defs>
<clipPath id="clip0_719_4499">
<rect width="24" height="24" fill="white" transform="translate(14 14)"/>
</clipPath>
</defs>
</svg>
