<svg width="52" height="52" viewBox="0 0 52 52" fill="none" xmlns="http://www.w3.org/2000/svg">
<rect width="52" height="52" fill="#E7FF2A"/>
<path d="M26.0005 14.043C23.3545 14.0459 20.8176 15.0982 18.9465 16.9692C17.0753 18.8402 16.0227 21.3769 16.0195 24.023C16.0195 26.593 18.0095 30.615 21.9345 35.977C22.4018 36.6171 23.0136 37.1379 23.7201 37.4969C24.4267 37.8559 25.208 38.043 26.0005 38.043C26.7931 38.043 27.5744 37.8559 28.2809 37.4969C28.9875 37.1379 29.5993 36.6171 30.0665 35.977C33.9915 30.615 35.9815 26.593 35.9815 24.023C35.9784 21.3769 34.9257 18.8402 33.0546 16.9692C31.1835 15.0982 28.6466 14.0459 26.0005 14.043ZM26.0005 28.001C25.2094 28.001 24.436 27.7664 23.7783 27.3268C23.1205 26.8873 22.6078 26.2626 22.305 25.5317C22.0023 24.8008 21.923 23.9965 22.0774 23.2206C22.2317 22.4447 22.6127 21.732 23.1721 21.1725C23.7315 20.6131 24.4442 20.2322 25.2202 20.0778C25.9961 19.9235 26.8004 20.0027 27.5313 20.3055C28.2622 20.6082 28.8869 21.1209 29.3264 21.7787C29.7659 22.4365 30.0005 23.2098 30.0005 24.001C30.0005 25.0618 29.5791 26.0793 28.829 26.8294C28.0788 27.5795 27.0614 28.001 26.0005 28.001Z" fill="#053333"/>
</svg>
