<svg width="51" height="50" viewBox="0 0 51 50" fill="none" xmlns="http://www.w3.org/2000/svg">
<rect x="0.5" width="50" height="50" rx="25" fill="white"/>
<path d="M36.7502 21.6244C36.7517 23.329 36.3651 25.0116 35.6198 26.5446C34.8745 28.0776 33.79 29.4208 32.4485 30.4725C32.0388 30.79 31.7067 31.1966 31.4774 31.6615C31.2482 32.1264 31.1277 32.6373 31.1252 33.1556V33.9994C31.1252 34.2978 31.0066 34.5839 30.7957 34.7949C30.5848 35.0058 30.2986 35.1244 30.0002 35.1244H21.0002C20.7018 35.1244 20.4157 35.0058 20.2047 34.7949C19.9937 34.5839 19.8752 34.2978 19.8752 33.9994V33.1556C19.8746 32.6401 19.7566 32.1316 19.53 31.6686C19.3033 31.2056 18.9741 30.8004 18.5674 30.4837C17.23 29.439 16.1467 28.1048 15.399 26.5813C14.6513 25.0579 14.2585 23.3847 14.2502 21.6876C14.2164 15.5901 19.1327 10.515 25.2288 10.3744C26.7288 10.3382 28.221 10.6024 29.6174 11.1515C31.0138 11.7007 32.2862 12.5236 33.3597 13.5719C34.4334 14.6202 35.2864 15.8726 35.8686 17.2555C36.4509 18.6385 36.7506 20.1239 36.7502 21.6244Z" fill="#E7FF2A"/>
<path d="M32.2502 39.6247C32.2502 39.9231 32.1316 40.2093 31.9207 40.4202C31.7098 40.6311 31.4236 40.7497 31.1252 40.7497H19.8752C19.5768 40.7497 19.2907 40.6311 19.0797 40.4202C18.8687 40.2093 18.7502 39.9231 18.7502 39.6247C18.7502 39.3263 18.8687 39.0401 19.0797 38.8292C19.2907 38.6182 19.5768 38.4997 19.8752 38.4997H31.1252C31.4236 38.4997 31.7098 38.6182 31.9207 38.8292C32.1316 39.0401 32.2502 39.3263 32.2502 39.6247ZM37.8752 21.6247C37.88 23.5001 37.4564 25.3518 36.6366 27.0386C35.8167 28.7254 34.6222 30.2025 33.1446 31.3573C32.8682 31.5691 32.6441 31.8414 32.489 32.153C32.334 32.4648 32.2523 32.8077 32.2502 33.1559V33.9997C32.2502 34.5964 32.0131 35.1687 31.5912 35.5907C31.1692 36.0126 30.5969 36.2497 30.0002 36.2497H21.0002C20.4034 36.2497 19.8311 36.0126 19.4092 35.5907C18.9872 35.1687 18.7502 34.5964 18.7502 33.9997V33.1559C18.7499 32.812 18.6709 32.4726 18.519 32.164C18.3671 31.8554 18.1465 31.5857 17.8741 31.3756C16.4001 30.2277 15.2065 28.7593 14.3837 27.0819C13.561 25.4045 13.1306 23.5619 13.1252 21.6936C13.0886 14.9914 18.5055 9.41 25.2021 9.24968C26.852 9.20993 28.4934 9.50064 30.0294 10.1047C31.5653 10.7088 32.965 11.614 34.1458 12.7671C35.3268 13.9202 36.265 15.2979 36.9054 16.8191C37.546 18.3403 37.8756 19.9742 37.8752 21.6247ZM35.6252 21.6247C35.6256 20.2742 35.3557 18.9373 34.8318 17.6927C34.3077 16.448 33.5399 15.3208 32.5736 14.3773C31.6074 13.4339 30.4621 12.6932 29.2054 12.199C27.9486 11.7048 26.6056 11.467 25.2555 11.4997C19.7711 11.6291 15.3457 16.1952 15.3752 21.6795C15.3803 23.2076 15.7329 24.7144 16.4063 26.086C17.0797 27.4577 18.0563 28.6582 19.2621 29.5967C19.8041 30.018 20.2425 30.5579 20.5438 31.1748C20.845 31.7917 21.0012 32.4694 21.0002 33.1559V33.9997H30.0002V33.1559C30.0017 32.4674 30.1605 31.7884 30.4644 31.1706C30.7683 30.5528 31.2093 30.0125 31.7538 29.5911C32.9633 28.6458 33.9408 27.4367 34.6118 26.0561C35.2828 24.6754 35.6294 23.1597 35.6252 21.6247ZM33.3597 20.3112C33.0681 18.6818 32.2841 17.1809 31.1134 16.0105C29.9428 14.8401 28.4416 14.0565 26.8122 13.7652C26.6665 13.7406 26.5173 13.745 26.3733 13.778C26.2293 13.8111 26.0932 13.8722 25.9728 13.9579C25.8525 14.0435 25.7501 14.1521 25.6717 14.2773C25.5933 14.4025 25.5403 14.542 25.5157 14.6877C25.491 14.8334 25.4954 14.9825 25.5286 15.1265C25.5616 15.2705 25.6227 15.4066 25.7083 15.527C25.7941 15.6474 25.9025 15.7497 26.0278 15.8282C26.153 15.9066 26.2925 15.9597 26.4382 15.9842C28.7683 16.3766 30.7455 18.3537 31.1407 20.6881C31.1852 20.9501 31.3211 21.1879 31.5241 21.3593C31.7272 21.5307 31.9844 21.6248 32.2502 21.6247C32.3137 21.6243 32.3772 21.6192 32.44 21.6092C32.7341 21.559 32.9962 21.3941 33.1686 21.1506C33.3412 20.9073 33.4098 20.6053 33.3597 20.3112Z" fill="#053333"/>
</svg>
