<svg width="51" height="50" viewBox="0 0 51 50" fill="none" xmlns="http://www.w3.org/2000/svg">
<circle cx="25.5" cy="25" r="25" fill="white"/>
<path d="M40.125 14.875V23.875L31.125 14.875H40.125Z" fill="#E7FF2A"/>
<path d="M40.1256 13.75H31.1256C30.903 13.7498 30.6853 13.8157 30.5001 13.9393C30.3149 14.0629 30.1706 14.2387 30.0854 14.4444C30.0002 14.65 29.978 14.8764 30.0214 15.0947C30.0649 15.3131 30.1722 15.5136 30.3297 15.6709L34.0351 19.375L26.6256 26.7845L21.7966 21.9541C21.6921 21.8494 21.568 21.7665 21.4314 21.7099C21.2949 21.6533 21.1485 21.6242 21.0006 21.6242C20.8528 21.6242 20.7064 21.6533 20.5698 21.7099C20.4332 21.7665 20.3092 21.8494 20.2047 21.9541L10.0797 32.0791C9.86859 32.2901 9.75 32.5765 9.75 32.875C9.75 33.1735 9.86859 33.4599 10.0797 33.6709C10.2908 33.882 10.5771 34.0006 10.8756 34.0006C11.1742 34.0006 11.4605 33.882 11.6716 33.6709L21.0006 24.3405L25.8297 29.1709C25.9342 29.2756 26.0582 29.3585 26.1949 29.4151C26.3314 29.4717 26.4778 29.5008 26.6256 29.5008C26.7734 29.5008 26.9198 29.4717 27.0565 29.4151C27.193 29.3585 27.3171 29.2756 27.4216 29.1709L35.6256 20.9655L39.3297 24.6709C39.487 24.8284 39.6876 24.9357 39.906 24.9792C40.1242 25.0226 40.3506 25.0004 40.5562 24.9152C40.7619 24.83 40.9377 24.6857 41.0613 24.5005C41.1849 24.3153 41.2508 24.0976 41.2506 23.875V14.875C41.2506 14.5766 41.1321 14.2905 40.9211 14.0795C40.7102 13.8685 40.424 13.75 40.1256 13.75ZM39.0006 21.1595L33.8411 16H39.0006V21.1595Z" fill="#053333"/>
</svg>
